<?xml version="1.0" encoding="UTF-8"?>
<svg version="1.1" xmlns="http://www.w3.org/2000/svg" width="252" height="252">
<path d="M0 0 C83.16 0 166.32 0 252 0 C252 83.16 252 166.32 252 252 C168.84 252 85.68 252 0 252 C0 168.84 0 85.68 0 0 Z " fill="#232B42" transform="translate(0,0)"/>
<path d="M0 0 C61.56908665 0 61.56908665 0 71.7578125 9.66796875 C77.49725042 15.94807835 78.41561714 21.72363952 78.25 30.09765625 C77.67748646 36.74418058 74.51899162 41.2658183 70 46 C65.7 49 65.7 49 63 49 C63 49.66 63 50.32 63 51 C63.56847656 51.13535156 64.13695313 51.27070312 64.72265625 51.41015625 C72.4534349 53.56548185 76.68149212 57.33526174 80.9375 64.0625 C83.45567517 71.0346975 83.19058872 80.03974525 80.4375 86.875 C75.32214706 96.39769856 69.22908671 100.63839605 59 104 C55.76890857 104.97116566 52.86732492 105.12125533 49.49707031 105.11352539 C48.38090332 105.11340454 47.26473633 105.11328369 46.11474609 105.11315918 C44.94766113 105.10804321 43.78057617 105.10292725 42.578125 105.09765625 C41.50095215 105.09664917 40.4237793 105.09564209 39.31396484 105.09460449 C35.29263239 105.08937501 31.27131512 105.07541374 27.25 105.0625 C18.2575 105.041875 9.265 105.02125 0 105 C0 70.35 0 35.7 0 0 Z " fill="#E9EDF4" transform="translate(44,65)"/>
<path d="M0 0 C6.35617527 5.40212947 10.18073548 10.74333797 12 19 C12 21.64 12 24.28 12 27 C5.07 27 -1.86 27 -9 27 C-9.66 24.36 -10.32 21.72 -11 19 C-11.67424167 16.64539322 -11.67424167 16.64539322 -13 15 C-15.40952023 13.75285597 -15.40952023 13.75285597 -18 13 C-18.99 12.67 -19.98 12.34 -21 12 C-28.98318641 11.43901933 -36.16810666 11.09555538 -42.6484375 16.33203125 C-44.8255127 19.01876857 -44.53649923 21.4381864 -44.40625 24.78125 C-43.72619411 28.4954014 -42.02000216 29.8608318 -39 32 C-33.51161308 34.2799723 -28.18787706 35.71852801 -22.375 36.875 C3.58272221 42.41840446 3.58272221 42.41840446 11.65625 53.21484375 C15.52476072 59.8450413 15.90795093 66.46878594 15 74 C12.46970878 82.89469185 7.69640534 89.79733126 0 95 C-12.89304474 101.63511744 -28.96038539 103.40026483 -43.125 99.75 C-53.78362937 96.25697292 -61.69124227 91.12805553 -67 81 C-69.95835146 75.01229665 -70 71.06665755 -70 64 C-62.74 64 -55.48 64 -48 64 C-47.01 67.3 -46.02 70.6 -45 74 C-41.36320311 79.02733688 -36.88949888 80.72096741 -31 82 C-24.63501518 82.60618903 -18.86518029 81.63673592 -13 79 C-9.94749083 75.94749083 -8.19656085 73.47420637 -7.625 69.1875 C-7.7458875 65.8746127 -7.7458875 65.8746127 -10 63.3125 C-16.55805803 58.25733027 -24.83865405 57.01400461 -32.75 55.1875 C-57.1987203 49.29827064 -57.1987203 49.29827064 -64.20703125 39.2734375 C-68.49737539 32.14813098 -68.81095948 25.17560313 -68 17 C-65.50314983 8.65772022 -59.85609467 1.81897371 -52.35546875 -2.53515625 C-35.83220212 -10.46170234 -15.37547182 -10.97826395 0 0 Z " fill="#E8ECF3" transform="translate(204,71)"/>
<path d="M0 0 C61.38 0 122.76 0 186 0 C186 3.96 186 7.92 186 12 C124.62 12 63.24 12 0 12 C0 8.04 0 4.08 0 0 Z " fill="#7C88C6" transform="translate(37,198)"/>
<path d="M0 0 C5.1975 -0.061875 5.1975 -0.061875 10.5 -0.125 C11.57572266 -0.14320801 12.65144531 -0.16141602 13.75976562 -0.18017578 C28.26824076 -0.26315783 28.26824076 -0.26315783 33.4375 4.4375 C36.78599164 7.78599164 37.19434011 10.30291522 37.375 14.875 C37.33046315 18.69960195 37.19588787 19.72921383 34.875 22.9375 C27.38826502 28.30841857 21.63067049 28.37630163 12.625 28.1875 C8.45875 28.125625 4.2925 28.06375 0 28 C0 18.76 0 9.52 0 0 Z " fill="#252D44" transform="translate(66,125)"/>
<path d="M0 0 C3.3 -0.061875 6.6 -0.12375 10 -0.1875 C11.53527344 -0.22846802 11.53527344 -0.22846802 13.1015625 -0.27026367 C20.54567045 -0.33724336 26.21449103 0.56267965 32 5.625 C34.5620704 9.94849381 35.19172586 13.09689932 34 18 C31.75295602 22.1776029 29.40312595 24.45212995 24.96875 26.18359375 C20.06043039 27.43455565 15.09150443 27.21367559 10.0625 27.125 C6.741875 27.08375 3.42125 27.0425 0 27 C0 18.09 0 9.18 0 0 Z " fill="#293147" transform="translate(66,82)"/>
</svg>
